
<svg height="24px" version="1.1" viewBox="0 0 24 24" width="24px" xmlns="http://www.w3.org/2000/svg" xmlns:sketch="http://www.bohemiancoding.com/sketch/ns" xmlns:xlink="http://www.w3.org/1999/xlink"><title/><desc/><defs/><g fill="none" fill-rule="evenodd" id="miu" stroke="none" stroke-width="1"><g id="Artboard-1" transform="translate(-575.000000, -227.000000)"><g id="slice" transform="translate(215.000000, 119.000000)"/><path d="M578.206336,231 C578.09238,231 578,231.093268 578,231.210129 L578,249.789871 C578,249.905922 578.091899,250 578.206336,250 L592.793664,250 C592.90762,250 593,249.906732 593,249.789871 L593,231.210129 C593,231.094078 592.908101,231 592.793664,231 L578.206336,231 Z M579,232 L579,249 L592,249 L592,232 L579,232 Z M581,230 L582,230 L582,229 L595,229 L595,246 L594,246 L594,247 L596,247 L596,228 L581,228 L581,230 Z" fill="#ffffff" id="editor-copy-duplicate-outline-stroke"/></g></g></svg>